<?xml version="1.0" encoding="UTF-8"?>
<!-- Generator: Adobe Illustrator 16.0.0, SVG Export Plug-In . SVG Version: 6.00 Build 0)  -->
<!DOCTYPE svg PUBLIC "-//W3C//DTD SVG 1.1//EN" "http://www.w3.org/Graphics/SVG/1.1/DTD/svg11.dtd">
<svg version="1.1" id="Layer_1" xmlns="http://www.w3.org/2000/svg" xmlns:xlink="http://www.w3.org/1999/xlink" x="0px" y="0px" width="523.834px" height="125px" viewBox="0 0 523.834 125" enable-background="new 0 0 523.834 125" xml:space="preserve" data-ember-extension="1">
<metadata><?xpacket begin="﻿" id="W5M0MpCehiHzreSzNTczkc9d"?>
<x:xmpmeta xmlns:x="adobe:ns:meta/" x:xmptk="Adobe XMP Core 5.3-c011 66.145661, 2012/02/06-14:56:27        ">
   <rdf:RDF xmlns:rdf="http://www.w3.org/1999/02/22-rdf-syntax-ns#">
      <rdf:Description rdf:about="" xmlns:dc="http://purl.org/dc/elements/1.1/">
         <dc:format>image/svg+xml</dc:format>
         <dc:title>
            <rdf:Alt>
               <rdf:li xml:lang="x-default">Print</rdf:li>
            </rdf:Alt>
         </dc:title>
      </rdf:Description>
      <rdf:Description rdf:about="" xmlns:xmp="http://ns.adobe.com/xap/1.0/" xmlns:xmpGImg="http://ns.adobe.com/xap/1.0/g/img/">
         <xmp:MetadataDate>2019-02-09T12:19:50+03:00</xmp:MetadataDate>
         <xmp:ModifyDate>2019-02-09T12:19:50+03:00</xmp:ModifyDate>
         <xmp:CreateDate>2019-02-09T12:19:49+03:00</xmp:CreateDate>
         <xmp:CreatorTool>Adobe Illustrator CS6 (Macintosh)</xmp:CreatorTool>
         <xmp:Thumbnails>
            <rdf:Alt>
               <rdf:li rdf:parseType="Resource">
                  <xmpGImg:width>256</xmpGImg:width>
                  <xmpGImg:height>64</xmpGImg:height>
                  <xmpGImg:format>JPEG</xmpGImg:format>
                  <xmpGImg:image>/9j/4AAQSkZJRgABAgEASABIAAD/7QAsUGhvdG9zaG9wIDMuMAA4QklNA+0AAAAAABAASAAAAAEA
AQBIAAAAAQAB/+4ADkFkb2JlAGTAAAAAAf/bAIQABgQEBAUEBgUFBgkGBQYJCwgGBggLDAoKCwoK
DBAMDAwMDAwQDA4PEA8ODBMTFBQTExwbGxscHx8fHx8fHx8fHwEHBwcNDA0YEBAYGhURFRofHx8f
Hx8fHx8fHx8fHx8fHx8fHx8fHx8fHx8fHx8fHx8fHx8fHx8fHx8fHx8fHx8f/8AAEQgAQAEAAwER
AAIRAQMRAf/EAaIAAAAHAQEBAQEAAAAAAAAAAAQFAwIGAQAHCAkKCwEAAgIDAQEBAQEAAAAAAAAA
AQACAwQFBgcICQoLEAACAQMDAgQCBgcDBAIGAnMBAgMRBAAFIRIxQVEGE2EicYEUMpGhBxWxQiPB
UtHhMxZi8CRygvElQzRTkqKyY3PCNUQnk6OzNhdUZHTD0uIIJoMJChgZhJRFRqS0VtNVKBry4/PE
1OT0ZXWFlaW1xdXl9WZ2hpamtsbW5vY3R1dnd4eXp7fH1+f3OEhYaHiImKi4yNjo+Ck5SVlpeYmZ
qbnJ2en5KjpKWmp6ipqqusra6voRAAICAQIDBQUEBQYECAMDbQEAAhEDBCESMUEFURNhIgZxgZEy
obHwFMHR4SNCFVJicvEzJDRDghaSUyWiY7LCB3PSNeJEgxdUkwgJChgZJjZFGidkdFU38qOzwygp
0+PzhJSktMTU5PRldYWVpbXF1eX1RlZmdoaWprbG1ub2R1dnd4eXp7fH1+f3OEhYaHiImKi4yNjo
+DlJWWl5iZmpucnZ6fkqOkpaanqKmqq6ytrq+v/aAAwDAQACEQMRAD8A9U4q7FXYq7FXlHniSnmi
9H/GL/kymNPOa/8AvpfD7gkXrYacRfDeTQyCSGRo5F6OhKkfSMaTGRBsPSPJHmiXVYpLS7PK8twG
EnTnH0qadweuB3uh1RyDhl9QZTi7B2KuxV2KuxV2KuxV2KuxV2KuxV2KuxV2KuxV2KuxV2KuxV2K
uxV2KuxV2KuxV2KuxV2KvHvP0lPNt+P+MX/JlMkA87r/AO+Pw+5j/q4acN3q40rKfy2mb/EqqDs0
MgPy2P8ADAQ5/Zx/e/B6xkXfuxVJPOeuXeiaBPqNokbzxNGqrKCU+NwpqFKnv45KIsuPqspxwMgw
Wz/Mfz/exetZ6NHcw1K+pDbXMi1HUVWQiuT4A6+OuzyFiN/Asl8neZPOGp6nLb61pf1G1WBpEl9C
eKsgdQF5SMw6MTTIyAHJytNnyzlU40K7izDIOcwDzN+Zdxb6o2k6Bai8u0b03kYM4LjqsaIQWI8a
5YId7rc+uIlwwFlLl/MzzXpdzGmv6UEhk3FEeGQjuVLFlanh+OHgB5NX57JA+uP6HpNhfW1/Zw3l
s3OCdA8bex8ffKiHawmJAEcixrzn5g816XdW0eiab9eikQtM/oTTcWBoBWJlA28cnEA83E1WbJAj
gjfwLEpfzS87Q3a2cumW8d4xVVtngnWQl/sgIZOVWrtkuAOEe0MwNGIv3H9bIfK/mnzvqGsxWuq6
R9UsnVzJP9WuI6FVJX4pGK7nIyiKcrT6jNKdSjQ9xZxkHYPJ4vzR85XN3JbWWnW9zIhb93FDPI/F
TStFkOW8AdMNflJoAH4H9aOtPzW1O0vktvMOlm1DU5siyRugP7XpyVJH04ODubI9oSBqcaekRyJJ
GskbBo3AZGHQgioIyt2gNsd8++Zb7y9o8N7ZRxSSyXCwsswZl4sjtUcWQ1qg75KIsuNrM5xRsd6M
8oazdaz5dtNSulRJ5/U5rECEHCVkFAxY9F8cEhRZ6bKZwEjzLGvPvn3WPL2sQ2VlDbyRSW6zM0yu
zcmd1oOLoKUQdsnGIIcXWayWKVCuTPcrdiw/8wvOOp+W/wBH/UYoJPrXrep66u1PT4U48WT+c5OE
bcHW6mWKqre0T5C82zeY9OnluljjvLeTjIkQYLwYVRqMWO9GHXtglGmej1JyxN8wr+d/Mz+XtF+t
wKj3ckixW6SVKkndiQpU7KD3xiLLLV5/ChY5pR+X/nfVvMV5dw3sUEaQRq6GFXUklqb8nfDKNNGj
1cspINbM3yDsHYq7FXYq8U/MSSnnHUB/xh/5MJlkRs87rv74/D7mOerkqcR3q40rLPywk5eaox/x
TL+rIy5Od2d/e/B7Flbv3YqxP80f+UNu/wDXh/5OLk4c3C1/90fgwnyX+Ydl5f0drCa0knczNLzR
lAowUU3/ANXJyhZcDS60Y48JD0Tyl5tt/MlvcTwW7wCBwhDkGtRXtlco07PTakZQSBVJ3O7JBI6/
aVWI+YGRcg8nk35P28c2vXt1KOcsUHwM25Bkccmr40FMtycnTdmi5k+T0bzJ5Z07zDZJaXzSIkcg
lR4SquCAVpVlbY8vDKwadpnwRyiiiNE0e20fS4NNtnkkgt+XBpSC55OX3KhR1bwxJtlixiEREdEd
gbHkfmj/AMmxZ/8AMVY/rjy2P0uk1H+Mj3xeuZU7t2KvDfJWvafonma4vL8ssBSWMFF5Hkzgjb6M
vkLDz2lzRx5CZI7zz5gtfN2padaaLbySzR80DsoVnMnGijfovHqcERXNs1eYZpAQD1nSLN7LSbKy
dgz20EULMOhMaBSR92VF3WOPDEDuDEPzi/5Rm1/5jU/5NS5LHzcHtP8Aux/W/QUz/LT/AJQnTf8A
nt/yfkwT5t2h/uR8fvYL+cX/ACk1r/zBJ/ydlyzHydd2n/eD+r+kvYcpd48x/Or/AKU3/Rz/AMys
txup7U/h+P6Es/LyeXRPNkFnOaQ6raxMpPQmWNZoz95KYZ7hp0R8PIAf4h+1FfmZczax5otdDtzU
WkZaSnZ3X1HP+xjUHBDYWz10jPIIDp+Pua/Jn/jp6j/xgT/ieORezPqPuesZU7l2KuxV2KsR178t
tL1nVZ9Snup45Z+HJE4cRwQIKVUnouSEqcHNoY5JGRJ3QH/KntE/5brr/kn/AM04eNr/AJMh3l3/
ACp7RP8Aluuv+Sf/ADTjxr/JkO8pn5d/LzTNC1Jb+3uZ5ZFRk4ScONG+SjAZW24NFHHLiBLKsi5r
sVYn+aP/ACht3/rw/wDJxcnDm4Wv/uj8GP8A5b6n5XtvLzR6nPaR3P1hyFn4c+JVafa3phmDbjaH
JjEPURds50nVvLlzK9vpVxbSSBfUeO3K14ggciF+YyBBdhjyYztEj4JjIgkjdCaBwVr8xTA2kPG/
IGpxeWvNN1ZasfqyyK1vI7bKkisCpY/ynff3rl0hYdHo8nhZCJbdGY+dvzCttLtIV0a5t7q+kcFl
BEqLFQ1JKHYk0pvkIwvm52q1ogPQQSyDytfahf6BZ3uoKqXdwhkdUBVeLMeFASeqUyMhu5OnnKUA
ZcymuBueR+aP/JsWf/MVY/rjy2P0uk1H+Mj3xeuZU7t2KvFfy706w1DzbcQXsCXMIimb05FDLyDr
Q0Pzy6Z2dDooCWUgi0f+aflzStIewvNMgFq0zSLIsdQtU4lWA/ZO56YIG2ztDBGFGIp6T5Zu5rzy
9ptzM3OaW3jaRz1LcRUn5nKzzdrgkZQBPcx/82LKa58qF41LfVbiOeQD+XiyE/RzyUDu43aMScfu
KE/LTzTokflqHT7m7itbm0aQMszrHyV3aQMpYgH7WGcTbXodRAY+EmiGJ+f7+28xeb7eHSm+sUjj
tEkTdWfmzEr4gc+uSiKDh6yYy5QI79HtOUu+eY/nV/0pv+jn/mVluN1Pan8Px/Qg/OOny2/l3yt5
gtvhmtra1idvAiNZIj9DBsYnchr1MKxwmOgCp5EtptVuvMHmW6HxGKZIu4DyqWbif8hKL8jjLagn
SRMzPIfNb+TP/HT1H/jAn/E8ci9mfUfcxj/lannj/q5f8kLf/qnk/DDj/ns3f9gd/wArU88f9XL/
AJIW/wD1Tx8ML+ezd/2B3/K1PPH/AFcv+SFv/wBU8fDC/ns3f9gemfld5i1fXdIu7jU5/rE0Vx6a
NwRKLwU0oiqOpyrJEAu00OaWSJMje7E/Pvn/AM1aT5svtPsb70bWH0vTj9KFqc4Uc7ujN9pj3ycI
Ahw9Xq8kMhAO3w7mP/8AK1PPH/Vy/wCSFv8A9U8l4Ycf89m7/sDv+VqeeP8Aq5f8kLf/AKp4+GF/
PZu/7Ayj8ufPXmfWfMyWWo3vr2xikcx+lEm6jbdEU5GcAA5Wj1WSeSpHZ6vlLt3YqgNc0Wz1nTpN
PvC4gkKljGQrVUhhuQfDCDTXlxDJHhPJjP8AyqPyr/Pdf8jF/wCaMl4hcT+Tcfmmnl3yLougXr3l
i0xmkjMLeq4YcWZW6BV3qgwGRLbh0kMZsWyHIuUkXmHyToGvOJbyEpcgU+swnhJQdjsQ30jJCRDj
5tLDJueaWad+VflWznWZ1muypqqXDqUqPFUVK/ThMy0w7PxxN7n3swAAAAFAOgyDnOxVj995I0a9
16PXJmm+uxPFIoVgE5Q047ca/s775ISNU409JCU+M3bIMi5LsVY9ofkXRdF1J9Qs2mM7qyMJHDLR
yCdgo8MkZEuLi0kMcuIXaM8xeWdM8wWsdvfhwsT+ojRsFYGhBFSDsa4AabM+COQVJEaNpNvpOnRW
Fu8jwQ1EZlIZgCa0qANt8SbZYsYhHhHJGOiSIyOodHBVlYVBB2IIOBsIYffflR5UupjKgntORqY4
HXj9AdZKfRkxMuDPs7GT1CZ+X/JHl/Qn9azhL3NKfWZjzkAPhsFX6BgMiW3DpIY9wN0+yLkpJ5l8
o6V5h+rfXzKPqvP0/SYL/eca1qG/kGSEqcfPpo5a4uiIu/LunXWgLocwc2SRRwqajmFhpwPKnX4R
2wXvbKWCJhwHk1pHlzTdK0htLtA4tn582YguTJsSTQdtumJNrjwRhHhHJC+XPJej+X55prBpi86h
H9VgwoDXairhMrYYNLHGbi+aPWzLp5x3rY0rvWxpXtn5Fty8vX5/5e/+ZSZj5ubuuzPoPvYB+a8l
PP8Aqg/4wf8AUNHluP6XA1396fh9zEvWydOI71saVnP5NycvO0Q/5d5v1DK8vJzuz/734PfMxnfO
xVZNKI05EVNQAB3JxVablEH734GpXj1707Yq5rqFeVSaIaMaEiv0DFXfWoeXHlvSu4I7V/Virluo
G+y1Tx5UAPTpiq+ORJF5L06b7bjFVhuoBWrdK12O1DT+OKtNdwAAkmhr2P7PXt2xVcbiIMQSagFu
hpQCppirX1uAJzLELWnQ1qN+lMVcbqEMV5bqCTsewqcVd9ag/m9q/Ry/VirhcwllUGpehGx79MVX
ySJGAWPU0FATufliqz61BVRy+0ARsehNN/pxVwuoDz+L7Aqxoeg22xVxuoAoYsaGv7Lfs9e2KuNz
CGK13HXY02Ff1Yq763BQnlWlBsCdyKgYq43cH8x+zy6HpStemKuN3AATyqAeOwJ3pXFXNdW6kgvu
KV2P7XTFXyReRT2d3NaXC8J7d2ilQ9mQlWH3jM8PKyiQaKj6vvhpDvV98aV7n+QbcvLeon/l8/5l
JmLn5u57N+g+957+bslPzD1Yf8w//UNFl2IekODrv70/D7mHer75ZTiO9X3xpXo35F2ktx5umuQD
6NpauXfsGkZVVfpHI/RlObk5/Z0byX3B75mK7x2KrZI1kQq3Q+Gx2xVSaziehcsxAoCTU9a4quNt
GQ4q3GStVrtU7mmKtNaxM7PuCwINPcUxVr6lAK0qOVQd/Gn9MVVIYliTitaVJ398VUzaoXlY/wC7
KdO1MVaezRmHxELVywHfn1xVs2cPNm3qwII9iKYq4WUPHjvTfv8AzChxVs2kRZm3+MEH6RTFWjZw
HttUGnaoFMVbW0iVlbclKBSewGKqjxq/Gv7JDD5jFVH6mnMHkeCqBx8aGu+KuayjIYKSoY1b5VqR
irYs0oQzFgS1PGj0rirhaIXZmJNSaDsKrx+/FXCygC8QDxqCR2NBiq420ZXjvTh6f0YqtNlBx4gE
CtRT5UxVz2UDEk1qa9/EU/hirz/8wvyftvMV2+qaXOtlqkgHrpID6MpGwY8asjeJANfDvl2PNWxc
DU6IZDxDYvO3/I3z8rECO1cD9oTCh+8A5d48XB/k/J5Lf+VH+f8A/fNt/wAj1/ph8aK/yfk8nqn5
SeUta8s6LeWmrKizTXPqxiNw44+mq9R7jMfLMSOzsdFhljiRLvYd+Yn5V+b9d846hqunxwtZ3Ho+
kXlCt8ECRtUf6ynLMeWIjRcXU6Oc8hkOTHP+VH+f/wDfNt/yPX+mWeNFo/k/J5Iqw/IfznPOq3ct
raQ1+OQyGRqf5Kqu/wBJGA54so9nZDzoPZfJnkzS/KmlfUbKskshD3V04HOV6UqadFH7K9vnU5jT
mZF2mDBHHGgn2Qb3Yq7FXYq7FXYq7FXYq7FXYq7FXYq7FXYq7FXYq7FXYq7FXYq7FXYq7FXYq//Z</xmpGImg:image>
               </rdf:li>
            </rdf:Alt>
         </xmp:Thumbnails>
      </rdf:Description>
      <rdf:Description rdf:about="" xmlns:xmpMM="http://ns.adobe.com/xap/1.0/mm/" xmlns:stRef="http://ns.adobe.com/xap/1.0/sType/ResourceRef#" xmlns:stEvt="http://ns.adobe.com/xap/1.0/sType/ResourceEvent#">
         <xmpMM:InstanceID>xmp.iid:F87F11740720681183D1B07959D6D329</xmpMM:InstanceID>
         <xmpMM:DocumentID>xmp.did:F87F11740720681183D1B07959D6D329</xmpMM:DocumentID>
         <xmpMM:OriginalDocumentID>uuid:5D20892493BFDB11914A8590D31508C8</xmpMM:OriginalDocumentID>
         <xmpMM:RenditionClass>proof:pdf</xmpMM:RenditionClass>
         <xmpMM:DerivedFrom rdf:parseType="Resource">
            <stRef:instanceID>uuid:ba5dc92b-6d0a-484a-ab90-b9370a4a0965</stRef:instanceID>
            <stRef:documentID>xmp.did:0980117407206811822A897E387FE54C</stRef:documentID>
            <stRef:originalDocumentID>uuid:5D20892493BFDB11914A8590D31508C8</stRef:originalDocumentID>
            <stRef:renditionClass>proof:pdf</stRef:renditionClass>
         </xmpMM:DerivedFrom>
         <xmpMM:History>
            <rdf:Seq>
               <rdf:li rdf:parseType="Resource">
                  <stEvt:action>saved</stEvt:action>
                  <stEvt:instanceID>xmp.iid:F87F11740720681183D1B07959D6D329</stEvt:instanceID>
                  <stEvt:when>2019-02-09T12:19:50+03:00</stEvt:when>
                  <stEvt:softwareAgent>Adobe Illustrator CS6 (Macintosh)</stEvt:softwareAgent>
                  <stEvt:changed>/</stEvt:changed>
               </rdf:li>
            </rdf:Seq>
         </xmpMM:History>
      </rdf:Description>
      <rdf:Description rdf:about="" xmlns:illustrator="http://ns.adobe.com/illustrator/1.0/">
         <illustrator:StartupProfile>Print</illustrator:StartupProfile>
      </rdf:Description>
      <rdf:Description rdf:about="" xmlns:xmpTPg="http://ns.adobe.com/xap/1.0/t/pg/" xmlns:stDim="http://ns.adobe.com/xap/1.0/sType/Dimensions#" xmlns:xmpG="http://ns.adobe.com/xap/1.0/g/">
         <xmpTPg:HasVisibleOverprint>False</xmpTPg:HasVisibleOverprint>
         <xmpTPg:HasVisibleTransparency>True</xmpTPg:HasVisibleTransparency>
         <xmpTPg:NPages>1</xmpTPg:NPages>
         <xmpTPg:MaxPageSize rdf:parseType="Resource">
            <stDim:w>523.833984</stDim:w>
            <stDim:h>125.000000</stDim:h>
            <stDim:unit>Pixels</stDim:unit>
         </xmpTPg:MaxPageSize>
         <xmpTPg:PlateNames>
            <rdf:Seq>
               <rdf:li>Cyan</rdf:li>
               <rdf:li>Magenta</rdf:li>
               <rdf:li>Yellow</rdf:li>
               <rdf:li>Black</rdf:li>
            </rdf:Seq>
         </xmpTPg:PlateNames>
         <xmpTPg:SwatchGroups>
            <rdf:Seq>
               <rdf:li rdf:parseType="Resource">
                  <xmpG:groupName>Default Swatch Group</xmpG:groupName>
                  <xmpG:groupType>0</xmpG:groupType>
               </rdf:li>
            </rdf:Seq>
         </xmpTPg:SwatchGroups>
      </rdf:Description>
      <rdf:Description rdf:about="" xmlns:pdf="http://ns.adobe.com/pdf/1.3/">
         <pdf:Producer>Adobe PDF library 10.01</pdf:Producer>
      </rdf:Description>
   </rdf:RDF>
</x:xmpmeta>
                                                                                                    
                                                                                                    
                                                                                                    
                                                                                                    
                                                                                                    
                                                                                                    
                                                                                                    
                                                                                                    
                                                                                                    
                                                                                                    
                                                                                                    
                                                                                                    
                                                                                                    
                                                                                                    
                                                                                                    
                                                                                                    
                                                                                                    
                                                                                                    
                                                                                                    
                                                                                                    
                           
<?xpacket end="w"?>
	</metadata>
<g>
	<path fill="#4FA398" d="M202.526,49.6h-17.644v13.591h20.976v7.319h-30.517V22.939h30.451v7.352h-20.911v11.958h17.644V49.6z"/>
	<path fill="#4FA398" d="M264.897,54.762l0.066,0.196c0.086,5.076-1.459,9.05-4.641,11.926c-3.18,2.875-7.568,4.312-13.166,4.312   c-5.708,0-10.314-1.835-13.821-5.506c-3.507-3.67-5.261-8.413-5.261-14.229V42.02c0-5.794,1.71-10.537,5.13-14.229   c3.419-3.692,7.907-5.538,13.461-5.538c5.793,0,10.324,1.416,13.592,4.248s4.857,6.818,4.77,11.958l-0.064,0.196h-9.279   c0-3.049-0.734-5.32-2.205-6.812c-1.471-1.492-3.742-2.238-6.812-2.238c-2.854,0-5.081,1.149-6.682,3.447   c-1.601,2.298-2.401,5.266-2.401,8.903v9.508c0,3.659,0.844,6.644,2.532,8.953s4.036,3.463,7.042,3.463   c2.854,0,4.982-0.745,6.387-2.238c1.406-1.492,2.107-3.785,2.107-6.878H264.897z"/>
	<path fill="#4FA398" d="M321.618,30.291h-13.592v40.22h-9.54v-40.22H285.09v-7.352h36.528V30.291z"/>
	<path fill="#4FA398" d="M353.051,51.495v19.016h-9.541V22.939h16.468c5.423,0,9.665,1.236,12.726,3.708s4.591,5.919,4.591,10.341   c0,2.44-0.648,4.547-1.944,6.322c-1.296,1.775-3.186,3.208-5.669,4.296c2.811,0.828,4.83,2.211,6.062,4.149   c1.23,1.939,1.846,4.335,1.846,7.188v3.496c0,1.329,0.18,2.718,0.539,4.166s0.975,2.521,1.846,3.218v0.687h-9.834   c-0.872-0.696-1.433-1.851-1.683-3.464c-0.251-1.611-0.376-3.169-0.376-4.672V59.01c0-2.374-0.648-4.22-1.944-5.538   c-1.296-1.317-3.131-1.977-5.505-1.977H353.051z M353.051,44.144h6.763c2.68,0,4.673-0.566,5.979-1.699   c1.307-1.132,1.96-2.81,1.96-5.032c0-2.178-0.659-3.91-1.977-5.195c-1.318-1.285-3.251-1.928-5.799-1.928h-6.927V44.144z"/>
	<path fill="#4FA398" d="M440.516,22.939v31.137c0,5.358-1.775,9.552-5.326,12.579c-3.551,3.028-8.157,4.542-13.82,4.542   c-5.642,0-10.222-1.514-13.739-4.542c-3.518-3.027-5.276-7.221-5.276-12.579V22.939h9.573v31.137c0,3.181,0.85,5.609,2.548,7.286   c1.699,1.678,3.997,2.516,6.895,2.516c2.94,0,5.271-0.838,6.992-2.516c1.72-1.677,2.581-4.105,2.581-7.286V22.939H440.516z"/>
	<path fill="#4FA398" d="M490.047,57.997h0.196l12.22-35.058h12.448v47.572h-9.54V38.034l-0.196-0.033l-11.763,32.51h-6.469   l-11.763-32.575l-0.195,0.033v32.542h-9.541V22.939h12.514L490.047,57.997z"/>
</g>
<g>
	<path fill="#E4E7E7" d="M183.946,101.198c0,0.16-0.005,0.296-0.014,0.408c-0.01,0.112-0.024,0.208-0.043,0.288   s-0.045,0.148-0.077,0.207c-0.032,0.057-0.083,0.123-0.154,0.197c-0.071,0.072-0.207,0.168-0.408,0.283   c-0.202,0.115-0.449,0.225-0.74,0.331c-0.292,0.105-0.625,0.193-1,0.265c-0.375,0.07-0.78,0.105-1.215,0.105   c-0.852,0-1.621-0.132-2.306-0.395c-0.686-0.262-1.268-0.654-1.749-1.177s-0.849-1.173-1.105-1.954   c-0.256-0.782-0.384-1.691-0.384-2.729c0-1.057,0.141-1.996,0.423-2.815s0.676-1.509,1.182-2.065s1.113-0.98,1.82-1.268   c0.708-0.289,1.488-0.433,2.339-0.433c0.346,0,0.679,0.028,0.999,0.087c0.32,0.057,0.617,0.133,0.889,0.225   c0.272,0.094,0.517,0.201,0.735,0.322c0.218,0.122,0.37,0.227,0.457,0.312s0.146,0.158,0.178,0.216   c0.032,0.058,0.058,0.132,0.077,0.222c0.02,0.09,0.034,0.195,0.043,0.316c0.009,0.121,0.014,0.272,0.014,0.451   c0,0.192-0.006,0.355-0.019,0.49s-0.035,0.244-0.067,0.326c-0.032,0.084-0.07,0.145-0.115,0.184   c-0.045,0.038-0.096,0.057-0.154,0.057c-0.096,0-0.218-0.056-0.365-0.168c-0.147-0.111-0.338-0.236-0.572-0.375   c-0.234-0.137-0.512-0.262-0.836-0.374c-0.323-0.112-0.709-0.168-1.157-0.168c-0.494,0-0.934,0.101-1.321,0.303   c-0.387,0.202-0.717,0.489-0.989,0.864c-0.272,0.375-0.479,0.828-0.62,1.359c-0.141,0.531-0.211,1.131-0.211,1.797   c0,0.73,0.075,1.362,0.226,1.896c0.15,0.535,0.365,0.976,0.644,1.322c0.279,0.346,0.615,0.604,1.009,0.772   c0.394,0.17,0.837,0.255,1.331,0.255c0.448,0,0.836-0.053,1.163-0.158s0.607-0.223,0.84-0.352c0.234-0.127,0.426-0.242,0.577-0.346   c0.15-0.102,0.267-0.153,0.351-0.153c0.064,0,0.115,0.013,0.154,0.038s0.07,0.077,0.096,0.154c0.025,0.076,0.044,0.184,0.058,0.321   C183.939,100.783,183.946,100.968,183.946,101.198z"/>
	<path fill="#E4E7E7" d="M195.171,102.783c0,0.064-0.018,0.119-0.053,0.164c-0.035,0.044-0.098,0.081-0.188,0.109   c-0.09,0.029-0.209,0.05-0.36,0.062c-0.15,0.014-0.341,0.02-0.571,0.02s-0.424-0.006-0.581-0.02   c-0.157-0.013-0.285-0.033-0.384-0.062c-0.1-0.028-0.17-0.065-0.211-0.109c-0.042-0.045-0.062-0.1-0.062-0.164V98.96   c0-0.269,0.008-0.548,0.024-0.836s0.04-0.569,0.072-0.846c-0.154,0.269-0.32,0.533-0.5,0.793c-0.179,0.259-0.362,0.517-0.547,0.772   l-2.892,3.93c-0.058,0.07-0.112,0.13-0.164,0.178c-0.051,0.049-0.117,0.086-0.197,0.115s-0.181,0.049-0.303,0.059   c-0.122,0.009-0.278,0.014-0.471,0.014c-0.23,0-0.418-0.006-0.562-0.02c-0.144-0.013-0.259-0.033-0.346-0.062   c-0.086-0.028-0.147-0.066-0.183-0.115c-0.035-0.048-0.053-0.104-0.053-0.168v-8.598c0-0.059,0.018-0.111,0.053-0.158   c0.035-0.049,0.099-0.088,0.192-0.121c0.093-0.031,0.214-0.056,0.365-0.072c0.15-0.016,0.341-0.023,0.572-0.023   c0.455,0,0.775,0.032,0.96,0.096c0.186,0.064,0.279,0.158,0.279,0.279v3.805c0,0.262-0.01,0.534-0.029,0.816   c-0.019,0.281-0.045,0.554-0.077,0.816c0.153-0.256,0.311-0.511,0.471-0.764c0.16-0.254,0.33-0.498,0.509-0.735l2.921-3.938   c0.051-0.07,0.105-0.13,0.163-0.178c0.058-0.049,0.13-0.087,0.216-0.115c0.086-0.029,0.192-0.05,0.317-0.062   c0.125-0.014,0.287-0.02,0.485-0.02c0.224,0,0.41,0.006,0.557,0.02c0.147,0.013,0.264,0.035,0.351,0.066   c0.086,0.033,0.146,0.074,0.178,0.125c0.032,0.052,0.048,0.109,0.048,0.174V102.783z"/>
	<path fill="#E4E7E7" d="M205.1,101.391c0,0.166-0.004,0.306-0.014,0.418c-0.01,0.111-0.022,0.206-0.039,0.283   c-0.016,0.076-0.035,0.139-0.058,0.188c-0.022,0.048-0.072,0.108-0.149,0.182c-0.077,0.074-0.208,0.164-0.394,0.27   c-0.186,0.105-0.397,0.2-0.634,0.283c-0.237,0.084-0.495,0.15-0.773,0.201c-0.278,0.052-0.565,0.078-0.86,0.078   c-0.66,0-1.244-0.104-1.753-0.309c-0.509-0.204-0.937-0.507-1.283-0.907s-0.607-0.889-0.783-1.465   c-0.176-0.577-0.264-1.236-0.264-1.979c0-0.857,0.107-1.6,0.322-2.224c0.214-0.624,0.514-1.142,0.898-1.552   s0.839-0.714,1.364-0.912c0.525-0.199,1.102-0.299,1.729-0.299c0.256,0,0.507,0.023,0.754,0.068s0.477,0.105,0.692,0.182   c0.214,0.077,0.406,0.164,0.576,0.26c0.169,0.096,0.29,0.18,0.36,0.25c0.07,0.07,0.12,0.129,0.149,0.178   c0.029,0.048,0.051,0.11,0.067,0.188c0.016,0.076,0.029,0.171,0.038,0.283c0.01,0.111,0.015,0.248,0.015,0.408   c0,0.371-0.032,0.633-0.096,0.783s-0.147,0.226-0.25,0.226c-0.109,0-0.224-0.045-0.346-0.135c-0.122-0.089-0.266-0.188-0.432-0.298   c-0.167-0.108-0.365-0.208-0.596-0.297c-0.23-0.09-0.506-0.135-0.826-0.135c-0.628,0-1.108,0.241-1.441,0.725   c-0.333,0.484-0.5,1.193-0.5,2.128c0,0.462,0.042,0.868,0.125,1.22c0.083,0.354,0.207,0.647,0.37,0.885   c0.163,0.236,0.368,0.414,0.615,0.533c0.247,0.118,0.533,0.178,0.86,0.178c0.333,0,0.62-0.05,0.86-0.149   c0.24-0.099,0.45-0.21,0.629-0.331c0.179-0.122,0.33-0.232,0.451-0.332s0.224-0.148,0.308-0.148c0.058,0,0.105,0.016,0.144,0.048   s0.069,0.091,0.091,0.178s0.04,0.196,0.053,0.331S205.1,101.179,205.1,101.391z"/>
	<path fill="#E4E7E7" d="M214.231,94.925c0,0.212-0.008,0.388-0.024,0.528c-0.016,0.141-0.04,0.254-0.072,0.336   c-0.032,0.084-0.072,0.142-0.12,0.174c-0.048,0.031-0.101,0.047-0.159,0.047h-2.161v6.744c0,0.064-0.02,0.121-0.058,0.168   c-0.039,0.049-0.103,0.089-0.192,0.121c-0.09,0.031-0.213,0.056-0.37,0.072c-0.157,0.016-0.354,0.023-0.591,0.023   c-0.231,0-0.423-0.008-0.577-0.023c-0.154-0.017-0.277-0.041-0.37-0.072c-0.093-0.032-0.157-0.072-0.192-0.121   c-0.035-0.047-0.053-0.104-0.053-0.168V96.01h-2.162c-0.064,0-0.12-0.018-0.168-0.053c-0.048-0.035-0.088-0.094-0.12-0.178   c-0.032-0.082-0.056-0.197-0.072-0.346c-0.016-0.146-0.024-0.326-0.024-0.537c0-0.192,0.01-0.354,0.029-0.485   s0.045-0.239,0.077-0.322c0.032-0.083,0.071-0.142,0.116-0.178c0.044-0.034,0.099-0.053,0.163-0.053h6.725   c0.058,0,0.111,0.019,0.159,0.053c0.048,0.036,0.088,0.095,0.12,0.178c0.032,0.083,0.056,0.194,0.072,0.331   C214.223,94.559,214.231,94.727,214.231,94.925z"/>
	<path fill="#E4E7E7" d="M224.352,98.221c0,0.294-0.066,0.512-0.197,0.652c-0.131,0.141-0.312,0.211-0.543,0.211h-5.216   c0,0.365,0.043,0.697,0.129,0.995s0.224,0.551,0.413,0.759s0.433,0.367,0.73,0.476c0.297,0.108,0.655,0.163,1.071,0.163   c0.423,0,0.794-0.03,1.115-0.092c0.32-0.061,0.597-0.127,0.831-0.201c0.234-0.073,0.428-0.141,0.582-0.201s0.278-0.092,0.375-0.092   c0.058,0,0.105,0.012,0.144,0.033c0.039,0.023,0.07,0.062,0.096,0.121c0.025,0.057,0.043,0.139,0.053,0.244   s0.015,0.238,0.015,0.398c0,0.142-0.003,0.262-0.01,0.361c-0.006,0.099-0.016,0.184-0.029,0.254s-0.032,0.13-0.058,0.178   c-0.026,0.049-0.06,0.095-0.101,0.14s-0.155,0.105-0.341,0.183c-0.186,0.076-0.423,0.152-0.711,0.226s-0.618,0.138-0.99,0.192   c-0.371,0.055-0.769,0.082-1.191,0.082c-0.762,0-1.43-0.097-2.003-0.289c-0.573-0.191-1.052-0.483-1.437-0.874   s-0.671-0.884-0.86-1.479s-0.283-1.293-0.283-2.094c0-0.763,0.099-1.449,0.298-2.061c0.198-0.612,0.486-1.131,0.865-1.557   c0.377-0.426,0.837-0.751,1.378-0.976c0.541-0.224,1.151-0.336,1.83-0.336c0.717,0,1.331,0.105,1.84,0.317   c0.509,0.211,0.927,0.504,1.253,0.879s0.567,0.818,0.721,1.33c0.154,0.513,0.23,1.07,0.23,1.672V98.221z M222.007,97.528   c0.02-0.679-0.117-1.212-0.408-1.6s-0.741-0.581-1.35-0.581c-0.308,0-0.575,0.058-0.802,0.173   c-0.228,0.115-0.417,0.271-0.567,0.466s-0.266,0.426-0.346,0.691s-0.126,0.55-0.139,0.851H222.007z"/>
	<path fill="#E4E7E7" d="M239.305,102.707c0.013,0.16-0.061,0.271-0.221,0.336c-0.16,0.063-0.445,0.096-0.855,0.096   c-0.25,0-0.45-0.004-0.6-0.01c-0.151-0.006-0.266-0.022-0.346-0.048s-0.134-0.062-0.163-0.11c-0.029-0.049-0.046-0.111-0.053-0.188   l-0.509-4.602c-0.02-0.166-0.037-0.352-0.053-0.557c-0.016-0.205-0.032-0.414-0.048-0.625s-0.03-0.421-0.043-0.629   c-0.013-0.209-0.029-0.396-0.048-0.562l0.01-0.24c-0.045,0.174-0.095,0.362-0.149,0.566c-0.055,0.205-0.114,0.414-0.178,0.625   s-0.125,0.422-0.183,0.629c-0.058,0.209-0.112,0.396-0.163,0.562l-1.508,4.746c-0.026,0.076-0.064,0.144-0.115,0.201   s-0.124,0.104-0.216,0.139c-0.093,0.036-0.211,0.062-0.355,0.078c-0.144,0.016-0.325,0.023-0.542,0.023   c-0.199,0-0.367-0.008-0.504-0.023c-0.138-0.017-0.253-0.042-0.346-0.078c-0.093-0.034-0.165-0.081-0.216-0.139   c-0.052-0.058-0.086-0.128-0.106-0.211l-1.47-4.736c-0.051-0.166-0.107-0.353-0.168-0.557c-0.061-0.205-0.122-0.414-0.183-0.625   c-0.061-0.211-0.119-0.422-0.173-0.629c-0.055-0.209-0.101-0.398-0.14-0.572l0.01,0.24c-0.013,0.166-0.025,0.354-0.039,0.562   c-0.013,0.208-0.029,0.418-0.048,0.629s-0.039,0.42-0.058,0.625s-0.035,0.391-0.048,0.557l-0.49,4.544   c-0.013,0.083-0.035,0.152-0.067,0.206c-0.032,0.055-0.093,0.098-0.182,0.131c-0.09,0.031-0.211,0.053-0.365,0.062   c-0.154,0.009-0.355,0.014-0.605,0.014c-0.224,0-0.403-0.006-0.538-0.02c-0.135-0.013-0.239-0.037-0.312-0.072   s-0.122-0.08-0.144-0.134c-0.022-0.055-0.03-0.124-0.024-0.206l0.845-8.022c0.032-0.275,0.122-0.481,0.269-0.62   c0.147-0.137,0.372-0.206,0.672-0.206h1.22c0.256,0,0.474,0.02,0.653,0.058c0.179,0.039,0.336,0.105,0.471,0.201   c0.135,0.097,0.247,0.229,0.336,0.395c0.089,0.166,0.169,0.375,0.24,0.625l0.96,2.939c0.058,0.191,0.115,0.393,0.173,0.6   c0.058,0.209,0.115,0.417,0.173,0.625s0.111,0.41,0.159,0.605s0.091,0.379,0.13,0.553h0.009c0.039-0.174,0.083-0.362,0.135-0.567   s0.104-0.413,0.158-0.624c0.055-0.212,0.112-0.42,0.173-0.625c0.061-0.205,0.12-0.396,0.178-0.576l0.961-2.93   c0.064-0.23,0.134-0.428,0.211-0.592c0.077-0.162,0.176-0.294,0.298-0.394c0.122-0.099,0.272-0.173,0.451-0.221   s0.4-0.072,0.663-0.072h1.21c0.308,0,0.536,0.069,0.687,0.206c0.15,0.139,0.238,0.345,0.264,0.62L239.305,102.707z"/>
	<path fill="#E4E7E7" d="M249.579,102.783c0,0.09-0.032,0.16-0.096,0.211c-0.064,0.052-0.165,0.088-0.303,0.111   c-0.138,0.021-0.342,0.033-0.61,0.033c-0.288,0-0.498-0.012-0.629-0.033c-0.132-0.023-0.225-0.06-0.279-0.111   c-0.054-0.051-0.081-0.121-0.081-0.211v-0.682c-0.353,0.377-0.755,0.672-1.206,0.883c-0.451,0.212-0.952,0.318-1.503,0.318   c-0.455,0-0.873-0.061-1.254-0.178c-0.381-0.119-0.711-0.295-0.99-0.529c-0.278-0.233-0.494-0.523-0.648-0.869   s-0.23-0.75-0.23-1.211c0-0.499,0.098-0.934,0.293-1.301c0.195-0.369,0.487-0.673,0.875-0.913c0.387-0.24,0.869-0.418,1.445-0.533   s1.246-0.173,2.008-0.173h0.836v-0.52c0-0.269-0.027-0.504-0.082-0.705c-0.054-0.202-0.144-0.37-0.269-0.505   c-0.125-0.134-0.291-0.233-0.5-0.298c-0.208-0.064-0.466-0.096-0.772-0.096c-0.404,0-0.765,0.045-1.081,0.135   c-0.317,0.09-0.598,0.188-0.841,0.297c-0.243,0.109-0.446,0.209-0.609,0.299c-0.164,0.09-0.297,0.134-0.399,0.134   c-0.07,0-0.133-0.022-0.187-0.067c-0.055-0.045-0.1-0.108-0.135-0.191c-0.035-0.084-0.062-0.186-0.082-0.308   s-0.029-0.257-0.029-0.403c0-0.199,0.016-0.355,0.048-0.471c0.032-0.115,0.093-0.22,0.183-0.312s0.247-0.195,0.47-0.308   c0.225-0.112,0.487-0.216,0.788-0.312c0.301-0.097,0.63-0.176,0.985-0.236s0.722-0.091,1.1-0.091c0.673,0,1.247,0.065,1.725,0.196   c0.477,0.132,0.869,0.334,1.177,0.605c0.308,0.272,0.531,0.623,0.672,1.053c0.142,0.429,0.212,0.938,0.212,1.527V102.783z    M247.206,99.113h-0.922c-0.391,0-0.724,0.029-0.999,0.086c-0.275,0.059-0.5,0.145-0.673,0.26s-0.3,0.255-0.38,0.418   c-0.08,0.164-0.12,0.352-0.12,0.562c0,0.358,0.114,0.641,0.342,0.846c0.227,0.205,0.542,0.307,0.946,0.307   c0.339,0,0.651-0.086,0.937-0.26c0.285-0.172,0.574-0.426,0.869-0.758V99.113z"/>
	<path fill="#E4E7E7" d="M268.922,103.081l-1.037,3.036c-0.058,0.16-0.215,0.275-0.471,0.346s-0.631,0.105-1.124,0.105   c-0.256,0-0.461-0.012-0.615-0.033c-0.153-0.023-0.269-0.06-0.346-0.111c-0.076-0.051-0.118-0.115-0.125-0.191   c-0.006-0.077,0.013-0.17,0.058-0.279l1.144-2.872c-0.083-0.038-0.158-0.098-0.226-0.178s-0.117-0.165-0.149-0.255l-2.949-7.877   c-0.083-0.225-0.125-0.396-0.125-0.514c0-0.119,0.039-0.212,0.115-0.279c0.077-0.067,0.207-0.113,0.39-0.139   s0.424-0.039,0.726-0.039c0.275,0,0.493,0.005,0.653,0.015c0.159,0.009,0.284,0.034,0.374,0.071   c0.09,0.039,0.157,0.098,0.202,0.178s0.09,0.194,0.135,0.342l2.017,5.735h0.029l1.845-5.851c0.038-0.166,0.088-0.277,0.148-0.332   c0.061-0.054,0.162-0.094,0.303-0.119s0.388-0.039,0.739-0.039c0.275,0,0.505,0.014,0.688,0.039s0.316,0.073,0.403,0.144   c0.087,0.071,0.13,0.165,0.13,0.283s-0.025,0.259-0.077,0.418L268.922,103.081z"/>
	<path fill="#E4E7E7" d="M282.376,102.754c0,0.064-0.02,0.121-0.058,0.168c-0.039,0.049-0.104,0.089-0.197,0.121   c-0.093,0.031-0.216,0.056-0.37,0.072c-0.153,0.016-0.349,0.023-0.586,0.023c-0.23,0-0.424-0.008-0.581-0.023   c-0.157-0.017-0.283-0.041-0.38-0.072c-0.096-0.032-0.161-0.072-0.196-0.121c-0.035-0.047-0.053-0.104-0.053-0.168v-6.896h-3.237   v6.896c0,0.064-0.021,0.121-0.062,0.168c-0.042,0.049-0.109,0.089-0.202,0.121c-0.093,0.031-0.216,0.056-0.37,0.072   c-0.153,0.016-0.349,0.023-0.586,0.023s-0.433-0.008-0.586-0.023c-0.153-0.017-0.277-0.041-0.37-0.072   c-0.093-0.032-0.156-0.072-0.191-0.121c-0.036-0.047-0.053-0.104-0.053-0.168v-8.117c0-0.256,0.054-0.449,0.163-0.581   c0.108-0.132,0.278-0.197,0.509-0.197h6.744c0.224,0,0.391,0.065,0.499,0.197c0.109,0.132,0.164,0.325,0.164,0.581V102.754z"/>
	<path fill="#E4E7E7" d="M294.456,98.345c0,0.763-0.081,1.449-0.244,2.062c-0.164,0.611-0.402,1.131-0.716,1.561   c-0.314,0.43-0.705,0.759-1.172,0.989c-0.468,0.23-1.003,0.347-1.604,0.347c-0.25,0-0.479-0.025-0.688-0.072   c-0.208-0.049-0.409-0.122-0.604-0.222c-0.196-0.099-0.39-0.222-0.582-0.37c-0.191-0.146-0.391-0.32-0.595-0.518v4.034   c0,0.063-0.02,0.122-0.059,0.173c-0.038,0.051-0.104,0.094-0.196,0.13c-0.093,0.035-0.217,0.062-0.37,0.081   c-0.153,0.02-0.349,0.029-0.586,0.029s-0.433-0.01-0.586-0.029c-0.153-0.019-0.277-0.046-0.37-0.081   c-0.093-0.036-0.158-0.079-0.196-0.13c-0.039-0.051-0.058-0.109-0.058-0.173v-11.97c0-0.064,0.016-0.121,0.048-0.168   c0.031-0.049,0.088-0.088,0.168-0.121c0.08-0.031,0.186-0.056,0.316-0.072c0.132-0.016,0.297-0.023,0.495-0.023   c0.192,0,0.354,0.008,0.485,0.023c0.131,0.017,0.236,0.041,0.317,0.072c0.079,0.033,0.136,0.072,0.168,0.121   c0.031,0.047,0.048,0.104,0.048,0.168v1.008c0.25-0.256,0.494-0.481,0.734-0.677s0.485-0.358,0.735-0.489   c0.25-0.132,0.508-0.229,0.773-0.294c0.266-0.063,0.549-0.096,0.85-0.096c0.628,0,1.163,0.123,1.604,0.37   c0.442,0.246,0.803,0.584,1.081,1.014c0.278,0.429,0.481,0.928,0.61,1.498C294.393,97.09,294.456,97.698,294.456,98.345z    M291.939,98.518c0-0.365-0.027-0.715-0.082-1.052c-0.054-0.336-0.146-0.636-0.278-0.897c-0.131-0.264-0.304-0.473-0.519-0.63   s-0.482-0.235-0.802-0.235c-0.16,0-0.319,0.023-0.476,0.072c-0.157,0.048-0.317,0.127-0.48,0.234   c-0.164,0.109-0.332,0.25-0.505,0.424c-0.173,0.172-0.355,0.387-0.547,0.643v2.825c0.339,0.429,0.662,0.761,0.97,0.994   s0.628,0.351,0.961,0.351c0.313,0,0.581-0.08,0.802-0.24c0.222-0.16,0.402-0.369,0.543-0.629s0.245-0.553,0.312-0.879   C291.906,99.171,291.939,98.844,291.939,98.518z"/>
	<path fill="#E4E7E7" d="M304.712,102.783c0,0.09-0.032,0.16-0.096,0.211c-0.064,0.052-0.165,0.088-0.303,0.111   c-0.138,0.021-0.342,0.033-0.61,0.033c-0.288,0-0.498-0.012-0.629-0.033c-0.132-0.023-0.225-0.06-0.279-0.111   c-0.054-0.051-0.081-0.121-0.081-0.211v-0.682c-0.353,0.377-0.755,0.672-1.206,0.883c-0.451,0.212-0.952,0.318-1.503,0.318   c-0.455,0-0.873-0.061-1.254-0.178c-0.381-0.119-0.711-0.295-0.989-0.529c-0.279-0.233-0.495-0.523-0.648-0.869   c-0.154-0.346-0.231-0.75-0.231-1.211c0-0.499,0.098-0.934,0.293-1.301c0.195-0.369,0.487-0.673,0.875-0.913   c0.387-0.24,0.869-0.418,1.445-0.533s1.246-0.173,2.008-0.173h0.836v-0.52c0-0.269-0.027-0.504-0.082-0.705   c-0.054-0.202-0.144-0.37-0.269-0.505c-0.125-0.134-0.291-0.233-0.5-0.298c-0.208-0.064-0.466-0.096-0.772-0.096   c-0.404,0-0.765,0.045-1.081,0.135c-0.317,0.09-0.598,0.188-0.841,0.297c-0.243,0.109-0.446,0.209-0.61,0.299   c-0.163,0.09-0.296,0.134-0.398,0.134c-0.07,0-0.133-0.022-0.188-0.067c-0.054-0.045-0.099-0.108-0.134-0.191   c-0.036-0.084-0.062-0.186-0.082-0.308s-0.029-0.257-0.029-0.403c0-0.199,0.017-0.355,0.049-0.471   c0.031-0.115,0.093-0.22,0.183-0.312c0.089-0.093,0.246-0.195,0.471-0.308c0.224-0.112,0.486-0.216,0.787-0.312   c0.301-0.097,0.63-0.176,0.985-0.236s0.722-0.091,1.1-0.091c0.673,0,1.247,0.065,1.725,0.196c0.477,0.132,0.869,0.334,1.177,0.605   c0.308,0.272,0.531,0.623,0.672,1.053c0.142,0.429,0.212,0.938,0.212,1.527V102.783z M302.339,99.113h-0.922   c-0.391,0-0.724,0.029-0.999,0.086c-0.275,0.059-0.5,0.145-0.673,0.26s-0.3,0.255-0.38,0.418c-0.08,0.164-0.12,0.352-0.12,0.562   c0,0.358,0.114,0.641,0.342,0.846c0.227,0.205,0.542,0.307,0.946,0.307c0.339,0,0.651-0.086,0.937-0.26   c0.285-0.172,0.574-0.426,0.869-0.758V99.113z"/>
	<path fill="#E4E7E7" d="M316.023,100.237c0,0.493-0.091,0.926-0.273,1.297c-0.183,0.372-0.46,0.681-0.831,0.927   c-0.372,0.247-0.836,0.435-1.394,0.562c-0.557,0.128-1.213,0.191-1.969,0.191c-0.25,0-0.482-0.001-0.696-0.004   c-0.215-0.004-0.423-0.008-0.625-0.015c-0.201-0.007-0.403-0.017-0.605-0.028c-0.201-0.014-0.418-0.033-0.648-0.059   c-0.301-0.025-0.516-0.115-0.644-0.269s-0.191-0.384-0.191-0.691v-7.388c0-0.295,0.061-0.518,0.182-0.668   c0.122-0.15,0.308-0.242,0.558-0.273c0.16-0.014,0.344-0.025,0.553-0.039c0.208-0.012,0.434-0.023,0.677-0.033   s0.496-0.018,0.759-0.023c0.263-0.007,0.528-0.01,0.798-0.01c0.686,0,1.275,0.048,1.772,0.144c0.496,0.097,0.906,0.242,1.229,0.437   c0.323,0.196,0.563,0.437,0.721,0.721c0.156,0.285,0.235,0.62,0.235,1.004c0,0.52-0.14,0.951-0.418,1.297s-0.678,0.58-1.196,0.701   c0.646,0.116,1.144,0.364,1.489,0.745C315.851,99.145,316.023,99.636,316.023,100.237z M313.372,96.452   c0-0.173-0.03-0.327-0.091-0.461c-0.062-0.134-0.159-0.248-0.293-0.341c-0.135-0.093-0.312-0.164-0.533-0.211   c-0.222-0.049-0.489-0.072-0.803-0.072c-0.243,0-0.473,0.006-0.687,0.02c-0.215,0.012-0.402,0.028-0.562,0.047v2.162h1.297   c0.545,0,0.959-0.098,1.244-0.293S313.372,96.824,313.372,96.452z M313.622,100.229c0-0.205-0.034-0.385-0.101-0.539   c-0.067-0.153-0.18-0.281-0.337-0.384s-0.361-0.178-0.614-0.226c-0.254-0.049-0.556-0.072-0.908-0.072h-1.259v2.459   c0.103,0.014,0.21,0.024,0.322,0.034c0.112,0.009,0.226,0.018,0.341,0.024c0.115,0.006,0.229,0.011,0.341,0.014   c0.112,0.004,0.213,0.005,0.303,0.005c0.34,0,0.631-0.03,0.874-0.091c0.244-0.061,0.442-0.149,0.596-0.265   c0.154-0.115,0.266-0.255,0.337-0.418C313.587,100.607,313.622,100.426,313.622,100.229z"/>
	<path fill="#E4E7E7" d="M326.701,102.754c0,0.064-0.019,0.121-0.058,0.168c-0.038,0.049-0.103,0.089-0.191,0.121   c-0.09,0.031-0.214,0.056-0.37,0.072c-0.157,0.016-0.351,0.023-0.581,0.023c-0.237,0-0.435-0.008-0.591-0.023   c-0.157-0.017-0.282-0.041-0.375-0.072c-0.093-0.032-0.157-0.072-0.192-0.121c-0.035-0.047-0.053-0.104-0.053-0.168v-6.926h-1.738   c-0.103,1.006-0.229,1.888-0.38,2.646s-0.325,1.414-0.523,1.965s-0.418,1.007-0.658,1.369c-0.24,0.361-0.504,0.648-0.793,0.859   c-0.288,0.211-0.6,0.361-0.937,0.451c-0.336,0.09-0.689,0.135-1.062,0.135c-0.09,0-0.163-0.013-0.221-0.039   c-0.058-0.025-0.103-0.074-0.135-0.148c-0.032-0.073-0.055-0.181-0.067-0.322c-0.013-0.141-0.019-0.326-0.019-0.557   c0-0.236,0.005-0.429,0.015-0.576c0.009-0.147,0.026-0.262,0.053-0.342c0.025-0.08,0.061-0.133,0.105-0.158   s0.099-0.038,0.163-0.038c0.18,0,0.351-0.036,0.514-0.11c0.164-0.074,0.317-0.205,0.462-0.395c0.144-0.188,0.279-0.438,0.408-0.749   c0.128-0.311,0.246-0.702,0.355-1.177c0.108-0.474,0.211-1.039,0.307-1.695c0.097-0.656,0.189-1.42,0.279-2.291   c0.013-0.263,0.068-0.458,0.168-0.586c0.099-0.129,0.261-0.192,0.485-0.192h4.967c0.224,0,0.391,0.063,0.499,0.192   c0.109,0.128,0.163,0.323,0.163,0.586V102.754z"/>
	<path fill="#E4E7E7" d="M338.061,98.221c0,0.294-0.065,0.512-0.196,0.652c-0.132,0.141-0.312,0.211-0.543,0.211h-5.217   c0,0.365,0.044,0.697,0.13,0.995c0.087,0.298,0.225,0.551,0.413,0.759c0.189,0.208,0.433,0.367,0.73,0.476s0.654,0.163,1.071,0.163   c0.422,0,0.794-0.03,1.114-0.092c0.32-0.061,0.597-0.127,0.831-0.201c0.233-0.073,0.427-0.141,0.581-0.201   c0.153-0.061,0.278-0.092,0.375-0.092c0.058,0,0.105,0.012,0.144,0.033c0.038,0.023,0.07,0.062,0.096,0.121   c0.026,0.057,0.044,0.139,0.054,0.244c0.009,0.105,0.014,0.238,0.014,0.398c0,0.142-0.003,0.262-0.01,0.361   c-0.006,0.099-0.016,0.184-0.028,0.254s-0.032,0.13-0.058,0.178c-0.025,0.049-0.06,0.095-0.101,0.14   c-0.042,0.045-0.155,0.105-0.342,0.183c-0.186,0.076-0.422,0.152-0.711,0.226c-0.288,0.073-0.618,0.138-0.989,0.192   s-0.769,0.082-1.191,0.082c-0.762,0-1.43-0.097-2.003-0.289c-0.573-0.191-1.052-0.483-1.436-0.874   c-0.385-0.391-0.671-0.884-0.86-1.479c-0.188-0.596-0.283-1.293-0.283-2.094c0-0.763,0.1-1.449,0.298-2.061   c0.198-0.612,0.486-1.131,0.864-1.557s0.838-0.751,1.379-0.976c0.541-0.224,1.151-0.336,1.83-0.336c0.717,0,1.33,0.105,1.84,0.317   c0.509,0.211,0.927,0.504,1.254,0.879c0.326,0.375,0.566,0.818,0.72,1.33c0.154,0.513,0.23,1.07,0.23,1.672V98.221z    M335.717,97.528c0.02-0.679-0.117-1.212-0.408-1.6s-0.741-0.581-1.35-0.581c-0.308,0-0.575,0.058-0.802,0.173   c-0.228,0.115-0.417,0.271-0.567,0.466s-0.266,0.426-0.346,0.691s-0.127,0.55-0.14,0.851H335.717z"/>
	<path fill="#E4E7E7" d="M349.373,102.754c0,0.064-0.02,0.121-0.058,0.168c-0.038,0.049-0.103,0.089-0.192,0.121   c-0.09,0.031-0.213,0.056-0.37,0.072c-0.156,0.016-0.351,0.023-0.581,0.023c-0.236,0-0.434-0.008-0.591-0.023   c-0.156-0.017-0.28-0.041-0.369-0.072c-0.09-0.032-0.154-0.072-0.192-0.121c-0.039-0.047-0.058-0.104-0.058-0.168v-3.371h-3.468   v3.371c0,0.064-0.02,0.121-0.059,0.168c-0.038,0.049-0.104,0.089-0.196,0.121c-0.093,0.031-0.217,0.056-0.37,0.072   c-0.153,0.016-0.349,0.023-0.586,0.023s-0.433-0.008-0.586-0.023c-0.153-0.017-0.277-0.041-0.37-0.072   c-0.093-0.032-0.158-0.072-0.196-0.121c-0.039-0.047-0.058-0.104-0.058-0.168v-8.568c0-0.064,0.019-0.121,0.058-0.168   c0.038-0.049,0.104-0.088,0.196-0.121c0.093-0.031,0.217-0.056,0.37-0.072c0.153-0.016,0.349-0.023,0.586-0.023   s0.433,0.008,0.586,0.023c0.153,0.017,0.277,0.041,0.37,0.072c0.093,0.033,0.158,0.072,0.196,0.121   c0.039,0.047,0.059,0.104,0.059,0.168v3.209h3.468v-3.209c0-0.064,0.019-0.121,0.058-0.168c0.038-0.049,0.103-0.088,0.192-0.121   c0.089-0.031,0.213-0.056,0.369-0.072c0.157-0.016,0.354-0.023,0.591-0.023c0.23,0,0.425,0.008,0.581,0.023   c0.157,0.017,0.28,0.041,0.37,0.072c0.09,0.033,0.154,0.072,0.192,0.121c0.038,0.047,0.058,0.104,0.058,0.168V102.754z"/>
	<path fill="#E4E7E7" d="M361.357,102.783c0,0.064-0.018,0.119-0.053,0.164c-0.035,0.044-0.098,0.081-0.188,0.109   c-0.09,0.029-0.21,0.05-0.36,0.062c-0.15,0.014-0.341,0.02-0.571,0.02s-0.425-0.006-0.581-0.02   c-0.157-0.013-0.285-0.033-0.385-0.062c-0.099-0.028-0.17-0.065-0.211-0.109c-0.042-0.045-0.062-0.1-0.062-0.164V98.96   c0-0.269,0.008-0.548,0.024-0.836c0.016-0.288,0.039-0.569,0.071-0.846c-0.153,0.269-0.32,0.533-0.499,0.793   c-0.18,0.259-0.362,0.517-0.548,0.772l-2.892,3.93c-0.058,0.07-0.112,0.13-0.163,0.178c-0.052,0.049-0.117,0.086-0.197,0.115   s-0.181,0.049-0.303,0.059c-0.121,0.009-0.278,0.014-0.471,0.014c-0.23,0-0.418-0.006-0.562-0.02   c-0.145-0.013-0.26-0.033-0.346-0.062c-0.087-0.028-0.147-0.066-0.183-0.115c-0.036-0.048-0.053-0.104-0.053-0.168v-8.598   c0-0.059,0.017-0.111,0.053-0.158c0.035-0.049,0.099-0.088,0.191-0.121c0.093-0.031,0.215-0.056,0.365-0.072   c0.15-0.016,0.341-0.023,0.572-0.023c0.454,0,0.774,0.032,0.96,0.096c0.186,0.064,0.279,0.158,0.279,0.279v3.805   c0,0.262-0.01,0.534-0.029,0.816c-0.02,0.281-0.045,0.554-0.077,0.816c0.154-0.256,0.311-0.511,0.471-0.764   c0.16-0.254,0.33-0.498,0.51-0.735l2.92-3.938c0.052-0.07,0.105-0.13,0.164-0.178c0.058-0.049,0.129-0.087,0.216-0.115   c0.086-0.029,0.192-0.05,0.316-0.062c0.125-0.014,0.287-0.02,0.485-0.02c0.225,0,0.41,0.006,0.558,0.02   c0.147,0.013,0.264,0.035,0.351,0.066c0.086,0.033,0.146,0.074,0.178,0.125c0.032,0.052,0.048,0.109,0.048,0.174V102.783z"/>
	<path fill="#E4E7E7" d="M372.17,102.754c0,0.071-0.015,0.131-0.044,0.178c-0.028,0.049-0.086,0.088-0.173,0.121   c-0.086,0.031-0.208,0.054-0.364,0.066c-0.157,0.014-0.364,0.02-0.62,0.02c-0.23,0-0.423-0.006-0.576-0.02   c-0.154-0.013-0.277-0.035-0.37-0.066c-0.093-0.033-0.157-0.072-0.192-0.121c-0.035-0.047-0.053-0.106-0.053-0.178v-3.236h-0.634   c-0.295,0-0.528,0.027-0.701,0.081c-0.173,0.055-0.332,0.147-0.476,0.278c-0.145,0.131-0.277,0.305-0.398,0.52   c-0.122,0.215-0.244,0.484-0.365,0.811l-0.567,1.471c-0.038,0.096-0.085,0.174-0.139,0.235c-0.055,0.062-0.135,0.106-0.24,0.14   c-0.105,0.031-0.242,0.054-0.408,0.066c-0.167,0.014-0.378,0.02-0.634,0.02c-0.225,0-0.413-0.004-0.567-0.01   c-0.153-0.006-0.278-0.02-0.375-0.038c-0.096-0.02-0.164-0.048-0.206-0.087c-0.042-0.038-0.062-0.092-0.062-0.163   c0-0.07,0.024-0.171,0.072-0.303c0.048-0.131,0.139-0.345,0.273-0.639l0.586-1.354c0.173-0.396,0.385-0.731,0.634-1.004   c0.25-0.271,0.535-0.473,0.855-0.601c-0.603-0.141-1.077-0.401-1.427-0.782c-0.349-0.382-0.523-0.88-0.523-1.494   c0-0.455,0.091-0.863,0.273-1.225c0.183-0.362,0.455-0.668,0.817-0.918c0.361-0.25,0.812-0.441,1.35-0.576s1.162-0.202,1.873-0.202   c0.198,0,0.418,0.003,0.658,0.01s0.483,0.017,0.73,0.028c0.246,0.014,0.489,0.027,0.729,0.043c0.24,0.017,0.453,0.034,0.639,0.054   c0.212,0.013,0.368,0.085,0.471,0.216s0.154,0.303,0.154,0.514V102.754z M369.777,95.482c-0.179-0.032-0.365-0.055-0.557-0.067   c-0.192-0.013-0.372-0.02-0.538-0.02c-0.34,0-0.623,0.032-0.851,0.097c-0.228,0.063-0.411,0.153-0.552,0.269   c-0.142,0.115-0.242,0.253-0.303,0.413c-0.062,0.16-0.092,0.333-0.092,0.519c0,0.198,0.034,0.376,0.102,0.533   c0.066,0.157,0.173,0.288,0.316,0.394c0.145,0.105,0.327,0.187,0.548,0.24c0.221,0.055,0.517,0.082,0.889,0.082h1.037V95.482z"/>
	<path fill="#E4E7E7" d="M394.646,102.754c0,0.064-0.02,0.121-0.058,0.168c-0.039,0.049-0.104,0.089-0.197,0.121   c-0.093,0.031-0.216,0.056-0.37,0.072c-0.153,0.016-0.349,0.023-0.586,0.023c-0.23,0-0.424-0.008-0.581-0.023   c-0.157-0.017-0.283-0.041-0.38-0.072c-0.096-0.032-0.161-0.072-0.196-0.121c-0.035-0.047-0.053-0.104-0.053-0.168v-6.896h-3.237   v6.896c0,0.064-0.021,0.121-0.062,0.168c-0.042,0.049-0.109,0.089-0.202,0.121c-0.093,0.031-0.216,0.056-0.37,0.072   c-0.153,0.016-0.349,0.023-0.586,0.023s-0.433-0.008-0.586-0.023c-0.153-0.017-0.277-0.041-0.37-0.072   c-0.093-0.032-0.156-0.072-0.191-0.121c-0.036-0.047-0.053-0.104-0.053-0.168v-8.117c0-0.256,0.054-0.449,0.163-0.581   c0.108-0.132,0.278-0.197,0.509-0.197h6.744c0.224,0,0.391,0.065,0.499,0.197c0.109,0.132,0.164,0.325,0.164,0.581V102.754z"/>
	<path fill="#E4E7E7" d="M406.725,98.345c0,0.763-0.081,1.449-0.244,2.062c-0.164,0.611-0.402,1.131-0.716,1.561   c-0.314,0.43-0.705,0.759-1.172,0.989c-0.468,0.23-1.003,0.347-1.604,0.347c-0.25,0-0.479-0.025-0.688-0.072   c-0.208-0.049-0.409-0.122-0.604-0.222c-0.196-0.099-0.39-0.222-0.582-0.37c-0.191-0.146-0.391-0.32-0.595-0.518v4.034   c0,0.063-0.02,0.122-0.059,0.173c-0.038,0.051-0.104,0.094-0.196,0.13c-0.093,0.035-0.217,0.062-0.37,0.081   c-0.153,0.02-0.349,0.029-0.586,0.029s-0.433-0.01-0.586-0.029c-0.153-0.019-0.277-0.046-0.37-0.081   c-0.093-0.036-0.158-0.079-0.196-0.13c-0.039-0.051-0.058-0.109-0.058-0.173v-11.97c0-0.064,0.016-0.121,0.048-0.168   c0.031-0.049,0.088-0.088,0.168-0.121c0.08-0.031,0.186-0.056,0.316-0.072c0.132-0.016,0.297-0.023,0.495-0.023   c0.192,0,0.354,0.008,0.485,0.023c0.131,0.017,0.236,0.041,0.317,0.072c0.079,0.033,0.136,0.072,0.168,0.121   c0.031,0.047,0.048,0.104,0.048,0.168v1.008c0.25-0.256,0.494-0.481,0.734-0.677s0.485-0.358,0.735-0.489   c0.25-0.132,0.508-0.229,0.773-0.294c0.266-0.063,0.549-0.096,0.85-0.096c0.628,0,1.163,0.123,1.604,0.37   c0.442,0.246,0.803,0.584,1.081,1.014c0.278,0.429,0.481,0.928,0.61,1.498C406.661,97.09,406.725,97.698,406.725,98.345z    M404.208,98.518c0-0.365-0.027-0.715-0.082-1.052c-0.054-0.336-0.146-0.636-0.278-0.897c-0.131-0.264-0.304-0.473-0.519-0.63   s-0.482-0.235-0.802-0.235c-0.16,0-0.319,0.023-0.476,0.072c-0.157,0.048-0.317,0.127-0.48,0.234   c-0.164,0.109-0.332,0.25-0.505,0.424c-0.173,0.172-0.355,0.387-0.547,0.643v2.825c0.339,0.429,0.662,0.761,0.97,0.994   s0.628,0.351,0.961,0.351c0.313,0,0.581-0.08,0.802-0.24c0.222-0.16,0.402-0.369,0.543-0.629s0.245-0.553,0.312-0.879   C404.175,99.171,404.208,98.844,404.208,98.518z"/>
	<path fill="#E4E7E7" d="M417.595,98.221c0,0.294-0.065,0.512-0.196,0.652c-0.132,0.141-0.312,0.211-0.543,0.211h-5.217   c0,0.365,0.044,0.697,0.13,0.995c0.087,0.298,0.225,0.551,0.413,0.759c0.189,0.208,0.433,0.367,0.73,0.476s0.654,0.163,1.071,0.163   c0.422,0,0.794-0.03,1.114-0.092c0.32-0.061,0.597-0.127,0.831-0.201c0.233-0.073,0.427-0.141,0.581-0.201   c0.153-0.061,0.278-0.092,0.375-0.092c0.058,0,0.105,0.012,0.144,0.033c0.038,0.023,0.07,0.062,0.096,0.121   c0.026,0.057,0.044,0.139,0.054,0.244c0.009,0.105,0.014,0.238,0.014,0.398c0,0.142-0.003,0.262-0.01,0.361   c-0.006,0.099-0.016,0.184-0.028,0.254s-0.032,0.13-0.058,0.178c-0.025,0.049-0.06,0.095-0.101,0.14   c-0.042,0.045-0.155,0.105-0.342,0.183c-0.186,0.076-0.422,0.152-0.711,0.226c-0.288,0.073-0.618,0.138-0.989,0.192   s-0.769,0.082-1.191,0.082c-0.762,0-1.43-0.097-2.003-0.289c-0.573-0.191-1.052-0.483-1.436-0.874   c-0.385-0.391-0.671-0.884-0.86-1.479c-0.188-0.596-0.283-1.293-0.283-2.094c0-0.763,0.1-1.449,0.298-2.061   c0.198-0.612,0.486-1.131,0.864-1.557s0.838-0.751,1.379-0.976c0.541-0.224,1.151-0.336,1.83-0.336c0.717,0,1.33,0.105,1.84,0.317   c0.509,0.211,0.927,0.504,1.254,0.879c0.326,0.375,0.566,0.818,0.72,1.33c0.154,0.513,0.23,1.07,0.23,1.672V98.221z    M415.251,97.528c0.02-0.679-0.117-1.212-0.408-1.6s-0.741-0.581-1.35-0.581c-0.308,0-0.575,0.058-0.802,0.173   c-0.228,0.115-0.417,0.271-0.567,0.466s-0.266,0.426-0.346,0.691s-0.127,0.55-0.14,0.851H415.251z"/>
	<path fill="#E4E7E7" d="M421.452,105.887c0,0.057-0.016,0.107-0.048,0.148s-0.09,0.076-0.173,0.105s-0.19,0.051-0.321,0.067   c-0.132,0.017-0.297,0.024-0.495,0.024c-0.205,0-0.375-0.008-0.509-0.024c-0.135-0.017-0.244-0.038-0.327-0.067   s-0.141-0.064-0.173-0.105s-0.048-0.092-0.048-0.148v-4.295c0-0.191,0.032-0.322,0.096-0.389c0.064-0.067,0.189-0.102,0.375-0.102   h0.471c0.205-0.269,0.397-0.572,0.576-0.912c0.18-0.34,0.348-0.76,0.505-1.264c0.156-0.502,0.301-1.104,0.432-1.806   c0.132-0.701,0.255-1.542,0.37-2.522c0.013-0.115,0.034-0.219,0.062-0.312c0.029-0.093,0.068-0.171,0.12-0.235   c0.051-0.064,0.117-0.112,0.197-0.145c0.08-0.031,0.178-0.048,0.293-0.048h5.293c0.23,0,0.4,0.065,0.51,0.197   c0.108,0.132,0.163,0.325,0.163,0.581v6.465h0.979c0.173,0,0.296,0.034,0.37,0.102c0.073,0.066,0.11,0.197,0.11,0.389v4.295   c0,0.057-0.016,0.107-0.048,0.148s-0.09,0.076-0.173,0.105c-0.084,0.029-0.192,0.051-0.327,0.067   c-0.134,0.017-0.304,0.024-0.509,0.024c-0.198,0-0.365-0.008-0.5-0.024c-0.134-0.017-0.241-0.038-0.321-0.067   s-0.138-0.064-0.173-0.105s-0.053-0.092-0.053-0.148v-2.806h-6.726V105.887z M426.391,95.789h-2.046   c-0.109,0.808-0.228,1.501-0.355,2.08c-0.129,0.58-0.263,1.078-0.404,1.494c-0.141,0.416-0.289,0.759-0.446,1.027   c-0.157,0.27-0.312,0.506-0.466,0.711h3.718V95.789z"/>
	<path fill="#E4E7E7" d="M440.882,102.754c0,0.064-0.02,0.121-0.058,0.168c-0.039,0.049-0.104,0.089-0.197,0.121   c-0.093,0.031-0.216,0.056-0.37,0.072c-0.153,0.016-0.349,0.023-0.586,0.023c-0.23,0-0.424-0.008-0.581-0.023   c-0.157-0.017-0.283-0.041-0.38-0.072c-0.096-0.032-0.161-0.072-0.196-0.121c-0.035-0.047-0.053-0.104-0.053-0.168v-6.896h-3.237   v6.896c0,0.064-0.021,0.121-0.062,0.168c-0.042,0.049-0.109,0.089-0.202,0.121c-0.093,0.031-0.216,0.056-0.37,0.072   c-0.153,0.016-0.349,0.023-0.586,0.023s-0.433-0.008-0.586-0.023c-0.153-0.017-0.277-0.041-0.37-0.072   c-0.093-0.032-0.156-0.072-0.191-0.121c-0.036-0.047-0.053-0.104-0.053-0.168v-8.117c0-0.256,0.054-0.449,0.163-0.581   c0.108-0.132,0.278-0.197,0.509-0.197h6.744c0.224,0,0.391,0.065,0.499,0.197c0.109,0.132,0.164,0.325,0.164,0.581V102.754z"/>
	<path fill="#E4E7E7" d="M452.962,98.345c0,0.763-0.081,1.449-0.244,2.062c-0.164,0.611-0.402,1.131-0.716,1.561   c-0.314,0.43-0.705,0.759-1.172,0.989c-0.468,0.23-1.003,0.347-1.604,0.347c-0.25,0-0.479-0.025-0.688-0.072   c-0.208-0.049-0.409-0.122-0.604-0.222c-0.196-0.099-0.39-0.222-0.582-0.37c-0.191-0.146-0.391-0.32-0.595-0.518v4.034   c0,0.063-0.02,0.122-0.059,0.173c-0.038,0.051-0.104,0.094-0.196,0.13c-0.093,0.035-0.217,0.062-0.37,0.081   c-0.153,0.02-0.349,0.029-0.586,0.029s-0.433-0.01-0.586-0.029c-0.153-0.019-0.277-0.046-0.37-0.081   c-0.093-0.036-0.158-0.079-0.196-0.13c-0.039-0.051-0.058-0.109-0.058-0.173v-11.97c0-0.064,0.016-0.121,0.048-0.168   c0.031-0.049,0.088-0.088,0.168-0.121c0.08-0.031,0.186-0.056,0.316-0.072c0.132-0.016,0.297-0.023,0.495-0.023   c0.192,0,0.354,0.008,0.485,0.023c0.131,0.017,0.236,0.041,0.317,0.072c0.079,0.033,0.136,0.072,0.168,0.121   c0.031,0.047,0.048,0.104,0.048,0.168v1.008c0.25-0.256,0.494-0.481,0.734-0.677s0.485-0.358,0.735-0.489   c0.25-0.132,0.508-0.229,0.773-0.294c0.266-0.063,0.549-0.096,0.85-0.096c0.628,0,1.163,0.123,1.604,0.37   c0.442,0.246,0.803,0.584,1.081,1.014c0.278,0.429,0.481,0.928,0.61,1.498C452.898,97.09,452.962,97.698,452.962,98.345z    M450.445,98.518c0-0.365-0.027-0.715-0.082-1.052c-0.054-0.336-0.146-0.636-0.278-0.897c-0.131-0.264-0.304-0.473-0.519-0.63   s-0.482-0.235-0.802-0.235c-0.16,0-0.319,0.023-0.476,0.072c-0.157,0.048-0.317,0.127-0.48,0.234   c-0.164,0.109-0.332,0.25-0.505,0.424c-0.173,0.172-0.355,0.387-0.547,0.643v2.825c0.339,0.429,0.662,0.761,0.97,0.994   s0.628,0.351,0.961,0.351c0.313,0,0.581-0.08,0.802-0.24c0.222-0.16,0.402-0.369,0.543-0.629s0.245-0.553,0.312-0.879   C450.412,99.171,450.445,98.844,450.445,98.518z"/>
	<path fill="#E4E7E7" d="M464.447,102.783c0,0.064-0.018,0.119-0.053,0.164c-0.035,0.044-0.098,0.081-0.188,0.109   c-0.09,0.029-0.21,0.05-0.36,0.062c-0.15,0.014-0.341,0.02-0.571,0.02s-0.425-0.006-0.581-0.02   c-0.157-0.013-0.285-0.033-0.385-0.062c-0.099-0.028-0.17-0.065-0.211-0.109c-0.042-0.045-0.062-0.1-0.062-0.164V98.96   c0-0.269,0.008-0.548,0.024-0.836c0.016-0.288,0.039-0.569,0.071-0.846c-0.153,0.269-0.32,0.533-0.499,0.793   c-0.18,0.259-0.362,0.517-0.548,0.772l-2.892,3.93c-0.058,0.07-0.112,0.13-0.163,0.178c-0.052,0.049-0.117,0.086-0.197,0.115   s-0.181,0.049-0.303,0.059c-0.121,0.009-0.278,0.014-0.471,0.014c-0.23,0-0.418-0.006-0.562-0.02   c-0.145-0.013-0.26-0.033-0.346-0.062c-0.087-0.028-0.147-0.066-0.183-0.115c-0.036-0.048-0.053-0.104-0.053-0.168v-8.598   c0-0.059,0.017-0.111,0.053-0.158c0.035-0.049,0.099-0.088,0.191-0.121c0.093-0.031,0.215-0.056,0.365-0.072   c0.15-0.016,0.341-0.023,0.572-0.023c0.454,0,0.774,0.032,0.96,0.096c0.186,0.064,0.279,0.158,0.279,0.279v3.805   c0,0.262-0.01,0.534-0.029,0.816c-0.02,0.281-0.045,0.554-0.077,0.816c0.154-0.256,0.311-0.511,0.471-0.764   c0.16-0.254,0.33-0.498,0.51-0.735l2.92-3.938c0.052-0.07,0.105-0.13,0.164-0.178c0.058-0.049,0.129-0.087,0.216-0.115   c0.086-0.029,0.192-0.05,0.316-0.062c0.125-0.014,0.287-0.02,0.485-0.02c0.225,0,0.41,0.006,0.558,0.02   c0.147,0.013,0.264,0.035,0.351,0.066c0.086,0.033,0.146,0.074,0.178,0.125c0.032,0.052,0.048,0.109,0.048,0.174V102.783z"/>
	<path fill="#E4E7E7" d="M475.26,102.754c0,0.071-0.015,0.131-0.044,0.178c-0.028,0.049-0.086,0.088-0.173,0.121   c-0.086,0.031-0.208,0.054-0.364,0.066c-0.157,0.014-0.364,0.02-0.62,0.02c-0.23,0-0.423-0.006-0.576-0.02   c-0.154-0.013-0.277-0.035-0.37-0.066c-0.093-0.033-0.157-0.072-0.192-0.121c-0.035-0.047-0.053-0.106-0.053-0.178v-3.236h-0.634   c-0.295,0-0.528,0.027-0.701,0.081c-0.173,0.055-0.332,0.147-0.476,0.278c-0.145,0.131-0.277,0.305-0.398,0.52   c-0.122,0.215-0.244,0.484-0.365,0.811l-0.567,1.471c-0.038,0.096-0.085,0.174-0.139,0.235c-0.055,0.062-0.135,0.106-0.24,0.14   c-0.105,0.031-0.242,0.054-0.408,0.066c-0.167,0.014-0.378,0.02-0.634,0.02c-0.225,0-0.413-0.004-0.567-0.01   c-0.153-0.006-0.278-0.02-0.375-0.038c-0.096-0.02-0.164-0.048-0.206-0.087c-0.042-0.038-0.062-0.092-0.062-0.163   c0-0.07,0.024-0.171,0.072-0.303c0.048-0.131,0.139-0.345,0.273-0.639l0.586-1.354c0.173-0.396,0.385-0.731,0.634-1.004   c0.25-0.271,0.535-0.473,0.855-0.601c-0.603-0.141-1.077-0.401-1.427-0.782c-0.349-0.382-0.523-0.88-0.523-1.494   c0-0.455,0.091-0.863,0.273-1.225c0.183-0.362,0.455-0.668,0.817-0.918c0.361-0.25,0.812-0.441,1.35-0.576s1.162-0.202,1.873-0.202   c0.198,0,0.418,0.003,0.658,0.01s0.483,0.017,0.73,0.028c0.246,0.014,0.489,0.027,0.729,0.043c0.24,0.017,0.453,0.034,0.639,0.054   c0.212,0.013,0.368,0.085,0.471,0.216s0.154,0.303,0.154,0.514V102.754z M472.867,95.482c-0.179-0.032-0.365-0.055-0.557-0.067   c-0.192-0.013-0.372-0.02-0.538-0.02c-0.34,0-0.623,0.032-0.851,0.097c-0.228,0.063-0.411,0.153-0.552,0.269   c-0.142,0.115-0.242,0.253-0.303,0.413c-0.062,0.16-0.092,0.333-0.092,0.519c0,0.198,0.034,0.376,0.102,0.533   c0.066,0.157,0.173,0.288,0.316,0.394c0.145,0.105,0.327,0.187,0.548,0.24c0.221,0.055,0.517,0.082,0.889,0.082h1.037V95.482z"/>
	<path fill="#E4E7E7" d="M485.073,94.925c0,0.212-0.008,0.388-0.024,0.528c-0.016,0.141-0.04,0.254-0.072,0.336   c-0.031,0.084-0.071,0.142-0.119,0.174c-0.049,0.031-0.102,0.047-0.159,0.047h-2.161v6.744c0,0.064-0.02,0.121-0.058,0.168   c-0.039,0.049-0.103,0.089-0.192,0.121c-0.09,0.031-0.213,0.056-0.37,0.072c-0.157,0.016-0.354,0.023-0.591,0.023   c-0.23,0-0.423-0.008-0.576-0.023c-0.153-0.017-0.277-0.041-0.37-0.072c-0.093-0.032-0.156-0.072-0.191-0.121   c-0.036-0.047-0.054-0.104-0.054-0.168V96.01h-2.161c-0.064,0-0.12-0.018-0.168-0.053s-0.088-0.094-0.12-0.178   c-0.032-0.082-0.057-0.197-0.072-0.346c-0.016-0.146-0.023-0.326-0.023-0.537c0-0.192,0.009-0.354,0.028-0.485   s0.045-0.239,0.077-0.322c0.031-0.083,0.07-0.142,0.115-0.178c0.045-0.034,0.099-0.053,0.163-0.053h6.725   c0.058,0,0.11,0.019,0.159,0.053c0.048,0.036,0.088,0.095,0.119,0.178c0.032,0.083,0.057,0.194,0.072,0.331   C485.065,94.559,485.073,94.727,485.073,94.925z"/>
	<path fill="#E4E7E7" d="M495.934,102.783c0,0.064-0.018,0.119-0.053,0.164c-0.035,0.044-0.098,0.081-0.188,0.109   c-0.09,0.029-0.21,0.05-0.36,0.062c-0.15,0.014-0.341,0.02-0.571,0.02s-0.425-0.006-0.581-0.02   c-0.157-0.013-0.285-0.033-0.385-0.062c-0.099-0.028-0.17-0.065-0.211-0.109c-0.042-0.045-0.062-0.1-0.062-0.164V98.96   c0-0.269,0.008-0.548,0.024-0.836c0.016-0.288,0.039-0.569,0.071-0.846c-0.153,0.269-0.32,0.533-0.499,0.793   c-0.18,0.259-0.362,0.517-0.548,0.772l-2.892,3.93c-0.058,0.07-0.112,0.13-0.163,0.178c-0.052,0.049-0.117,0.086-0.197,0.115   s-0.181,0.049-0.303,0.059c-0.121,0.009-0.278,0.014-0.471,0.014c-0.23,0-0.418-0.006-0.562-0.02   c-0.145-0.013-0.26-0.033-0.346-0.062c-0.087-0.028-0.147-0.066-0.183-0.115c-0.036-0.048-0.053-0.104-0.053-0.168v-8.598   c0-0.059,0.017-0.111,0.053-0.158c0.035-0.049,0.099-0.088,0.191-0.121c0.093-0.031,0.215-0.056,0.365-0.072   c0.15-0.016,0.341-0.023,0.572-0.023c0.454,0,0.774,0.032,0.96,0.096c0.186,0.064,0.279,0.158,0.279,0.279v3.805   c0,0.262-0.01,0.534-0.029,0.816c-0.02,0.281-0.045,0.554-0.077,0.816c0.154-0.256,0.311-0.511,0.471-0.764   c0.16-0.254,0.33-0.498,0.51-0.735l2.92-3.938c0.052-0.07,0.105-0.13,0.164-0.178c0.058-0.049,0.129-0.087,0.216-0.115   c0.086-0.029,0.192-0.05,0.316-0.062c0.125-0.014,0.287-0.02,0.485-0.02c0.225,0,0.41,0.006,0.558,0.02   c0.147,0.013,0.264,0.035,0.351,0.066c0.086,0.033,0.146,0.074,0.178,0.125c0.032,0.052,0.048,0.109,0.048,0.174V102.783z"/>
	<path fill="#E4E7E7" d="M507.293,98.221c0,0.294-0.065,0.512-0.196,0.652c-0.132,0.141-0.312,0.211-0.543,0.211h-5.217   c0,0.365,0.044,0.697,0.13,0.995c0.087,0.298,0.225,0.551,0.413,0.759c0.189,0.208,0.433,0.367,0.73,0.476s0.654,0.163,1.071,0.163   c0.422,0,0.794-0.03,1.114-0.092c0.32-0.061,0.597-0.127,0.831-0.201c0.233-0.073,0.427-0.141,0.581-0.201   c0.153-0.061,0.278-0.092,0.375-0.092c0.058,0,0.105,0.012,0.144,0.033c0.038,0.023,0.07,0.062,0.096,0.121   c0.026,0.057,0.044,0.139,0.054,0.244c0.009,0.105,0.014,0.238,0.014,0.398c0,0.142-0.003,0.262-0.01,0.361   c-0.006,0.099-0.016,0.184-0.028,0.254s-0.032,0.13-0.058,0.178c-0.025,0.049-0.06,0.095-0.101,0.14   c-0.042,0.045-0.155,0.105-0.342,0.183c-0.186,0.076-0.422,0.152-0.711,0.226c-0.288,0.073-0.618,0.138-0.989,0.192   s-0.769,0.082-1.191,0.082c-0.762,0-1.43-0.097-2.003-0.289c-0.573-0.191-1.052-0.483-1.436-0.874   c-0.385-0.391-0.671-0.884-0.86-1.479c-0.188-0.596-0.283-1.293-0.283-2.094c0-0.763,0.1-1.449,0.298-2.061   c0.198-0.612,0.486-1.131,0.864-1.557s0.838-0.751,1.379-0.976c0.541-0.224,1.151-0.336,1.83-0.336c0.717,0,1.33,0.105,1.84,0.317   c0.509,0.211,0.927,0.504,1.254,0.879c0.326,0.375,0.566,0.818,0.72,1.33c0.154,0.513,0.23,1.07,0.23,1.672V98.221z    M504.949,97.528c0.02-0.679-0.117-1.212-0.408-1.6s-0.741-0.581-1.35-0.581c-0.308,0-0.575,0.058-0.802,0.173   c-0.228,0.115-0.417,0.271-0.567,0.466s-0.266,0.426-0.346,0.691s-0.127,0.55-0.14,0.851H504.949z"/>
	<path fill="#E4E7E7" d="M522.246,102.707c0.013,0.16-0.061,0.271-0.221,0.336c-0.16,0.063-0.445,0.096-0.855,0.096   c-0.25,0-0.45-0.004-0.601-0.01s-0.266-0.022-0.346-0.048s-0.135-0.062-0.163-0.11c-0.029-0.049-0.047-0.111-0.053-0.188   l-0.51-4.602c-0.019-0.166-0.036-0.352-0.053-0.557c-0.016-0.205-0.032-0.414-0.048-0.625s-0.03-0.421-0.043-0.629   c-0.013-0.209-0.029-0.396-0.048-0.562l0.01-0.24c-0.045,0.174-0.095,0.362-0.149,0.566c-0.055,0.205-0.113,0.414-0.178,0.625   s-0.125,0.422-0.183,0.629c-0.058,0.209-0.112,0.396-0.163,0.562l-1.509,4.746c-0.025,0.076-0.063,0.144-0.115,0.201   c-0.051,0.058-0.123,0.104-0.216,0.139c-0.093,0.036-0.211,0.062-0.355,0.078c-0.144,0.016-0.325,0.023-0.543,0.023   c-0.198,0-0.366-0.008-0.504-0.023c-0.138-0.017-0.253-0.042-0.346-0.078c-0.094-0.034-0.165-0.081-0.217-0.139   c-0.051-0.058-0.086-0.128-0.105-0.211l-1.47-4.736c-0.052-0.166-0.107-0.353-0.168-0.557c-0.062-0.205-0.122-0.414-0.183-0.625   s-0.119-0.422-0.173-0.629c-0.055-0.209-0.101-0.398-0.14-0.572l0.01,0.24c-0.013,0.166-0.025,0.354-0.038,0.562   c-0.014,0.208-0.029,0.418-0.049,0.629c-0.019,0.211-0.038,0.42-0.058,0.625c-0.019,0.205-0.035,0.391-0.048,0.557l-0.489,4.544   c-0.014,0.083-0.036,0.152-0.067,0.206c-0.032,0.055-0.093,0.098-0.183,0.131c-0.09,0.031-0.212,0.053-0.365,0.062   c-0.153,0.009-0.355,0.014-0.605,0.014c-0.224,0-0.403-0.006-0.538-0.02c-0.134-0.013-0.238-0.037-0.312-0.072   c-0.074-0.035-0.122-0.08-0.145-0.134c-0.022-0.055-0.03-0.124-0.024-0.206l0.846-8.022c0.032-0.275,0.122-0.481,0.27-0.62   c0.146-0.137,0.371-0.206,0.672-0.206h1.221c0.256,0,0.474,0.02,0.653,0.058c0.179,0.039,0.336,0.105,0.471,0.201   c0.134,0.097,0.246,0.229,0.336,0.395s0.17,0.375,0.24,0.625l0.961,2.939c0.058,0.191,0.115,0.393,0.173,0.6   c0.058,0.209,0.115,0.417,0.173,0.625s0.11,0.41,0.158,0.605s0.091,0.379,0.13,0.553h0.01c0.038-0.174,0.083-0.362,0.134-0.567   c0.052-0.205,0.104-0.413,0.159-0.624c0.054-0.212,0.111-0.42,0.173-0.625c0.061-0.205,0.12-0.396,0.178-0.576l0.96-2.93   c0.064-0.23,0.135-0.428,0.212-0.592c0.077-0.162,0.176-0.294,0.298-0.394c0.121-0.099,0.272-0.173,0.451-0.221   c0.18-0.048,0.4-0.072,0.663-0.072h1.21c0.308,0,0.537,0.069,0.688,0.206c0.15,0.139,0.238,0.345,0.264,0.62L522.246,102.707z"/>
</g>
<g>
	<path opacity="0.75" fill="#FFFFFF" d="M0,21.624v33.875h55.479v-55.5H21.617C9.678-0.001,0,9.681,0,21.624z"/>
	<linearGradient id="SVGID_1_" gradientUnits="userSpaceOnUse" x1="97.2183" y1="0.124" x2="97.2183" y2="125.128">
		<stop offset="0" style="stop-color:#70CAAB"/>
		<stop offset="1" style="stop-color:#297680"/>
	</linearGradient>
	<path fill="url(#SVGID_1_)" d="M103.341-0.001H69.479v55.5h55.479V21.624C124.958,9.681,115.279-0.001,103.341-0.001z"/>
	<linearGradient id="SVGID_2_" gradientUnits="userSpaceOnUse" x1="27.7393" y1="0.1245" x2="27.7393" y2="125.1285">
		<stop offset="0" style="stop-color:#70CAAB"/>
		<stop offset="1" style="stop-color:#297680"/>
	</linearGradient>
	<path fill="url(#SVGID_2_)" d="M0,103.374C0,115.317,9.678,124.999,21.617,125h33.861V69.499H0V103.374z"/>
	<linearGradient id="SVGID_3_" gradientUnits="userSpaceOnUse" x1="97.2183" y1="0.1245" x2="97.2183" y2="125.1285">
		<stop offset="0" style="stop-color:#70CAAB"/>
		<stop offset="1" style="stop-color:#297680"/>
	</linearGradient>
	<path fill="url(#SVGID_3_)" d="M69.479,125h33.862c11.938,0,21.617-9.683,21.617-21.625V69.499H69.479V125z"/>
</g>
</svg>